# xmcd
#
# Track frame offsets:
#	150
#	19391
#	24667
#	38060
#	52477
#	65415
#	83253
#	104382
#	119344
#	138284
#	158232
#	174078
#	193058
#	215214
#	232585
#	250878
#	267984
#	292648
#
# Disc length: 4330 seconds
#
# Revision: 13
# Processed by: cddbd v1.5.2PL0 Copyright (c) Steve Scherf et al.
# Submitted via: Jack! The Knife 18 Bulletproof
#
DISCID=f610e812
DTITLE=Patty Pravo - Bye Bye Patty
DYEAR=1997
DGENRE=Pop
TTITLE0=E dimmi che non vuoi morire
TTITLE1=Intro
TTITLE2=Ragazzo triste
TTITLE3=Qui e là
TTITLE4=Se perdo te
TTITLE5=La bambola
TTITLE6=Pazza idea
TTITLE7=Morire tra le viole
TTITLE8=Pensiero stupendo
TTITLE9=Tutt'al più
TTITLE10=Il paradiso
TTITLE11=Poesia
TTITLE12=Ragazza passione
TTITLE13=La mela in tasca
TTITLE14=Non andare via
TTITLE15=Col tempo (Avec temps)
TTITLE16=A modo mio (My way)
TTITLE17=Pensiero stupendo ('97)
EXTD=Nando Sepe
EXTT0=Rossi, Curreri, Ferri
EXTT1=Mazzarono, Petruzzelli, Modugno, Fazio
EXTT2=Boncompagni, Bono
EXTT3=Diversi, Toussaint
EXTT4=Bardotti, Korda
EXTT5=Migliacci, Zambrini, Cini
EXTT6=Dossena, Monti, Ullu, Gigli
EXTT7=Maurizio Monti
EXTT8=Fossati, Prudente
EXTT9=Migliacci, Pintucci
EXTT10=Mogol, Battisti
EXTT11=Cassella, Luberti, Cocciante
EXTT12=Pravo, Dossena, Carnevale
EXTT13=Spathas, Tourkogiorgis, Albertelli
EXTT14=Brel, Paoli
EXTT15=Medail, Ferré
EXTT16=Lo Vecchio, Revaux, François, Thibaut
EXTT17=Fossati, Prudente
PLAYORDER=
